<svg xmlns="http://www.w3.org/2000/svg" viewBox="0 0 227.9 54"><defs><style>.cls-1{fill:#fff;}.cls-2{font-size:36px;font-family:S-CoreDream-2ExtraLight, S-Core Dream;font-weight:200;}.cls-3{letter-spacing:-0.01em;}</style></defs><g id="레이어_2" data-name="레이어 2"><g id="레이어_1-2" data-name="레이어 1"><path class="cls-1" d="M27,53.5a26.5,26.5,0,0,1,0-53H186a26.5,26.5,0,0,1,0,53Z"/><path d="M186,1a26,26,0,0,1,0,52H27A26,26,0,0,1,27,1H186m0-1H27A27.08,27.08,0,0,0,0,27H0A27.08,27.08,0,0,0,27,54H186a27.08,27.08,0,0,0,27-27h0A27.08,27.08,0,0,0,186,0Z"/><text class="cls-2" transform="translate(65.55 35.55)"><tspan class="cls-3">L</tspan><tspan x="19.12" y="0">ogo</tspan></text></g></g></svg>